{"title":"Jugend ohne Gott (2017) - 1080p x265 HEVC - GER (HARD ENG SUBS) ","magnet":"magnet:?xt=urn:btih:904f7627079a02b75b9e24e7cd6fabd19e5f7763&dn=Jugend+ohne+Gott+%282017%29+-+1080p+x265+HEVC+-+GER+%28HARD+ENG+SUBS%29+&tr=udp%3A%2F%2Ftracker.leechers-paradise.org%3A6969&tr=udp%3A%2F%2Fzer0day.ch%3A1337&tr=udp%3A%2F%2Fopen.demonii.com%3A1337&tr=udp%3A%2F%2Ftracker.coppersurfer.tk%3A6969&tr=udp%3A%2F%2Fexodus.desync.com%3A6969","uploader":"BRSHNKV","categoryP":"video","categoryS":"hd___movies","size":"1599840054","seeders":"7","leechers":"4","description":" <a href=\"https://www.imdb.com/title/tt5651338/?ref_=rvi_tt\" rel=\"nofollow\" target=\"_NEW\">https://www.imdb.com/title/tt5651338/?ref_=rvi_tt</a>\r\n\r\n\r\n\r\n**********\r\n\r\nID : 1 \r\nFormat : HEVC \r\nFormat/Info : High Efficiency Video Coding \r\nFormat profile : Main 10@L4@Main \r\nCodec ID : hvc1 \r\nCodec ID/Info : High Efficiency Video Coding \r\nDuration : 1h 54mn \r\nBit rate : 1 701 Kbps \r\nWidth : 1 920 pixels \r\nHeight : 802 pixels \r\nDisplay aspect ratio : 2.40:1 \r\nFrame rate mode : Constant \r\nFrame rate : 25.000 fps \r\nColor space : YUV \r\nChroma subsampling : 4:2:0 \r\nBit depth : 10 bits \r\nBits/(Pixel*Frame) : 0.044 \r\nStream size : 1.35 GiB (91%) \r\nWriting library : x265 2.6:[Mac OS X][clang 9.1.0][64 bit] 10bit \r\nEncoded date : UTC 2018-09-30 23:49:34 \r\nTagged date : UTC 2018-09-30 23:49:34 \r\nColor range : Limited \r\nColor primaries : BT.709 \r\nTransfer characteristics : BT.709 \r\nMatrix coefficients : BT.709 \r\n\r\nAudio \r\nID : 2 \r\nFormat : AAC \r\nFormat/Info : Advanced Audio Codec \r\nFormat profile : LC \r\nCodec ID : 40 \r\nDuration : 1h 54mn \r\nBit rate mode : Variable \r\nBit rate : 164 Kbps \r\nChannel(s) : 2 channels \r\nChannel(s)_Original : 1 channel \r\nChannel positions : Front: C \r\nSampling rate : 44.1 KHz \r\nCompression mode : Lossy \r\nStream size : 134 MiB (9%) \r\nTitle : Mono / Mono \r\nLanguage : German \r\nEncoded date : UTC 2018-09-30 23:49:34 \r\nTagged date : UTC 2018-09-30 23:49:34","last_updated":"2018-10-01T12:08:33.705Z","parsed":{"xt":"urn:btih:904f7627079a02b75b9e24e7cd6fabd19e5f7763","dn":"Jugend ohne Gott (2017) - 1080p x265 HEVC - GER (HARD ENG SUBS) ","tr":["udp://exodus.desync.com:6969","udp://open.demonii.com:1337","udp://tracker.coppersurfer.tk:6969","udp://tracker.leechers-paradise.org:6969","udp://zer0day.ch:1337"],"infoHash":"904f7627079a02b75b9e24e7cd6fabd19e5f7763","infoHashBuffer":{"type":"Buffer","data":[144,79,118,39,7,154,2,183,91,158,36,231,205,111,171,209,158,95,119,99]},"name":"Jugend ohne Gott (2017) - 1080p x265 HEVC - GER (HARD ENG SUBS) ","announce":["udp://exodus.desync.com:6969","udp://open.demonii.com:1337","udp://tracker.coppersurfer.tk:6969","udp://tracker.leechers-paradise.org:6969","udp://zer0day.ch:1337"],"urlList":[]}}